<svg width="195" height="159" viewBox="0 0 195 159" fill="none" xmlns="http://www.w3.org/2000/svg">
<g filter="url(#filter0_d_103_1999)">
<path d="M177.4 62.2C177.4 107.046 141.046 143.4 96.2 143.4C51.3545 143.4 15 107.046 15 62.2C15 17.3545 51.3545 -19 96.2 -19C141.046 -19 177.4 17.3545 177.4 62.2Z" fill="white"/>
</g>
<g opacity="0.2">
<path d="M95.9434 71C109.167 71 119.887 69.7016 119.887 68.0999C119.887 66.4982 109.167 65.1997 95.9434 65.1997C82.7198 65.1997 72 66.4982 72 68.0999C72 69.7016 82.7198 71 95.9434 71Z" fill="#000072"/>
</g>
<path d="M107.537 55.97C107.537 55.97 114.185 55.6905 113.915 52C113.553 47.0771 108.286 44.406 108.46 38.5141C108.758 28.4414 127.389 27.9924 127.671 40.2894C127.749 43.721 126.083 44.8619 124.558 44.9168C122.175 45.0039 120.927 43.1644 120.62 40.7682C120.056 36.3882 113.924 36.5967 113.539 40.7774C113.225 44.17 121.19 49.5328 118.272 55.5736C116.258 59.7429 111.457 60.5997 108.453 60.3935C107.846 60.3546 107.537 55.97 107.537 55.97Z" fill="#BFBFBF"/>
<g opacity="0.5">
<path d="M127.65 41.1509C126.945 29.454 109.198 29.8572 108.479 39.4557C108.456 39.151 108.449 38.8372 108.458 38.5142C108.756 28.4415 127.387 27.9902 127.669 40.2895C127.676 40.5965 127.669 40.8829 127.65 41.1509Z" fill="white"/>
</g>
<g opacity="0.3">
<path d="M107.677 57.4613C107.823 58.7373 108.085 60.3706 108.451 60.3958C111.454 60.602 116.256 59.7453 118.269 55.576C119.344 53.3539 118.943 51.2258 118.027 49.2511C118.13 50.3484 118.553 51.59 117.749 53.244C115.743 57.3697 110.685 57.6469 107.677 57.4613Z" fill="#000072"/>
</g>
<g opacity="0.3">
<path d="M120.618 40.7706C120.928 43.1645 122.174 45.004 124.556 44.9169C125.615 44.8803 126.744 44.3167 127.307 42.8277C126.758 43.263 126.114 43.4554 125.493 43.4783C122.98 43.5699 122.242 41.7785 121.977 39.2449C121.196 31.7906 108.463 36.2371 114.417 43.4462C114.616 43.6868 113.867 42.4612 113.615 41.648C113.542 41.3479 113.512 41.0592 113.537 40.782C113.925 36.5967 120.055 36.3883 120.618 40.7706Z" fill="#000072"/>
</g>
<path d="M109.297 60.8586C108.96 60.8586 108.664 60.8449 108.422 60.8288C107.95 60.7967 107.636 60.3729 107.338 58.2288C107.185 57.1269 107.107 56.0479 107.104 56.0021L107.072 55.5577L107.519 55.5394C107.558 55.5371 111.427 55.3538 112.925 53.6701C113.347 53.1982 113.528 52.6621 113.482 52.0321C113.324 49.8948 112.178 48.1836 110.967 46.3716C109.473 44.1403 107.927 41.8335 108.025 38.5004C108.179 33.2728 113.001 30.5559 117.69 30.5696C120.359 30.5788 122.856 31.4241 124.721 32.9475C126.865 34.6999 128.035 37.2359 128.104 40.278C128.187 43.9204 126.336 45.2857 124.574 45.3499C122.205 45.4392 120.565 43.744 120.189 40.8233C119.933 38.8348 118.414 37.9735 117.014 37.9964C115.626 38.0216 114.146 38.9036 113.97 40.8187C113.864 41.9503 114.934 43.5172 116.068 45.1758C118.08 48.1217 120.583 51.7893 118.664 55.7639C117.711 57.7362 116.105 59.1703 113.892 60.0316C112.153 60.7051 110.47 60.8586 109.297 60.8586ZM108.607 59.9698C110.021 60.0477 115.631 60.0408 117.88 55.3859C119.582 51.8626 117.335 48.5685 115.351 45.6637C114.075 43.7944 112.973 42.1817 113.106 40.7385C113.331 38.3034 115.282 37.1603 116.998 37.1282C118.778 37.0984 120.725 38.1911 121.048 40.7133C121.197 41.8793 121.841 44.5802 124.54 44.4817C125.378 44.4519 127.318 43.9823 127.234 40.2987C127.094 34.2005 122.338 31.4539 117.686 31.4378C117.674 31.4378 117.66 31.4378 117.649 31.4378C113.395 31.4378 109.029 33.8661 108.891 38.5256C108.802 41.5815 110.268 43.7692 111.686 45.8859C112.909 47.7117 114.171 49.597 114.346 51.9657C114.41 52.8293 114.149 53.5968 113.571 54.2451C112.146 55.844 109.145 56.2655 108.002 56.3709C108.133 57.9058 108.385 59.5551 108.607 59.9698Z" fill="#000072"/>
<path d="M112.841 61.5985H79.0742C79.5163 59.184 80.1601 56.7168 80.8954 54.3321C82.0087 50.7149 83.3351 47.2925 84.4897 44.5572C84.5149 44.4977 84.5401 44.4381 84.5653 44.3786C84.618 44.2549 84.6706 44.1312 84.7233 44.0097C84.8379 43.7417 84.9501 43.4829 85.0601 43.2309C85.2136 42.8781 85.3625 42.5413 85.5045 42.2206C85.6099 41.9847 85.713 41.7556 85.8138 41.5357C85.9397 41.2585 86.0612 40.9973 86.1734 40.7522C86.8515 39.2884 87.2867 38.4316 87.2867 38.4316H104.63C104.63 38.4316 104.635 38.4431 104.646 38.466C104.683 38.537 104.779 38.7272 104.921 39.0204C105.169 39.5289 105.563 40.349 106.048 41.412C106.067 41.4532 106.085 41.4944 106.106 41.5357C106.195 41.735 106.291 41.9434 106.387 42.1588C106.532 42.4864 106.685 42.83 106.843 43.1896C106.951 43.4348 107.061 43.6867 107.171 43.9479C107.194 44.0006 107.214 44.051 107.237 44.1037C107.267 44.1747 107.299 44.248 107.329 44.3236C108.348 46.7289 109.517 49.6909 110.554 52.8637C110.712 53.3493 110.868 53.8373 111.022 54.3298C111.757 56.7145 112.401 59.184 112.841 61.5985Z" fill="#BFBFBF"/>
<path d="M95.2817 59.798C99.2201 59.798 102.413 56.7847 102.413 53.0677C102.413 49.3506 99.2201 46.3373 95.2817 46.3373C91.3432 46.3373 88.1504 49.3506 88.1504 53.0677C88.1504 56.7847 91.3432 59.798 95.2817 59.798Z" fill="white"/>
<path d="M112.842 61.6077H79.076C78.9477 61.6077 78.824 61.5504 78.7415 61.4519C78.659 61.3534 78.6247 61.2228 78.6476 61.0968C80.6543 50.1491 86.8372 37.9345 86.899 37.8131C87.0067 37.6001 87.2701 37.5153 87.4832 37.623C87.6962 37.7329 87.781 37.9941 87.6733 38.2071C87.6138 38.3263 81.6783 50.0529 79.5983 60.7417H112.318C110.238 50.0552 104.302 38.3263 104.243 38.2071C104.133 37.9941 104.22 37.7329 104.433 37.623C104.646 37.5153 104.907 37.6001 105.017 37.8131C105.079 37.9345 111.262 50.1491 113.268 61.0968C113.291 61.2228 113.257 61.3534 113.175 61.4519C113.092 61.5504 112.971 61.6077 112.842 61.6077Z" fill="#000072"/>
<path d="M85.2291 58.1097C83.7814 54.0068 77.5595 52.921 75.9308 59.5872C74.6823 64.6957 78.6454 65.8709 78.6454 65.8709H111.917C111.917 65.8709 115.88 64.6957 114.632 59.5872C113.003 52.921 106.781 54.0068 105.333 58.1097" fill="#BFBFBF"/>
<g opacity="0.5">
<path d="M85.2291 58.1097H85.2405V58.9733H85.2291C83.7813 54.8705 77.5595 53.7846 75.9307 60.4509C75.8047 60.9686 75.7314 61.4451 75.7039 61.8849C75.6581 61.2252 75.7177 60.4646 75.9307 59.5872C77.5595 52.921 83.7813 54.0068 85.2291 58.1097Z" fill="white"/>
</g>
<g opacity="0.5">
<path d="M114.859 61.8849C114.831 61.445 114.756 60.9686 114.632 60.4508C113.113 54.229 107.592 54.7605 105.684 58.1921C105.59 58.3616 105.336 58.2975 105.336 58.1028C106.788 54.0045 113.006 52.9233 114.632 59.5872C114.845 60.4646 114.907 61.2251 114.859 61.8849Z" fill="white"/>
</g>
<path d="M85.0235 58.1806C83.665 55.5737 80.5839 54.1557 78.1808 56.3251C77.0171 57.4544 76.4375 59.0946 76.2176 60.6868C75.9359 62.7187 76.7537 64.643 78.7146 65.4356L78.7673 65.4562L78.6436 65.4379C78.5863 65.4333 112.399 65.4425 111.844 65.4356C112.541 65.1561 113.168 64.675 113.61 64.0703C114.572 62.7714 114.529 60.9869 114.101 59.4772C113.684 57.9355 112.889 56.3961 111.43 55.6539C109.157 54.4993 106.55 56.0158 105.535 58.1806C105.483 58.2929 105.35 58.3387 105.24 58.2814C105.148 58.2356 105.102 58.1302 105.128 58.034C105.343 57.1521 105.829 56.3113 106.52 55.6768C108.839 53.5532 112.24 54.0686 113.936 56.7053C114.701 57.8828 115.111 59.2 115.294 60.5699C115.56 62.469 114.953 64.4803 113.329 65.6211C112.964 65.8869 112.563 66.0999 112.14 66.2511C112.078 66.2717 111.993 66.3038 111.92 66.3015C111.922 66.3038 78.6436 66.2992 78.6436 66.3015C78.5657 66.3038 78.4855 66.2717 78.4191 66.2511C77.9953 66.0999 77.5944 65.8869 77.2302 65.6211C75.1478 64.1367 74.8638 61.5252 75.5281 59.2252C75.8763 57.9057 76.5017 56.5771 77.5325 55.6241C78.9689 54.2634 81.1337 53.9724 82.8861 54.8635C83.3122 55.072 83.7062 55.34 84.0544 55.6562C84.7554 56.2861 85.2434 57.1383 85.4312 58.0317C85.4839 58.2883 85.138 58.4028 85.0235 58.1806Z" fill="#000072"/>
<path d="M118.196 61.2504C117.74 64.5423 115.979 67.179 113.876 67.8273C113.663 67.8937 113.452 67.9464 113.246 67.9876C111.631 68.3175 110.25 67.983 109.526 67.7998C108.089 67.4332 107.058 67.179 105.558 67.0117C103.67 66.801 101.031 66.7231 95.8931 66.7231C90.7548 66.7231 88.1158 66.7987 86.2282 67.0117C86.1824 67.0163 86.1343 67.0232 86.0885 67.0278C86.0427 67.0324 85.9968 67.0369 85.951 67.0438C85.5891 67.0873 85.2546 67.1377 84.9316 67.195C84.8904 67.2019 84.8514 67.2087 84.8125 67.2156C84.6521 67.2454 84.4941 67.2752 84.3383 67.3073C84.2993 67.3141 84.2604 67.3233 84.2215 67.3302C84.1825 67.337 84.1436 67.3462 84.1046 67.3554C83.832 67.4149 83.5594 67.4768 83.2777 67.5455C83.2364 67.5547 83.1975 67.5661 83.1562 67.5753C82.8722 67.644 82.579 67.7196 82.2628 67.7998C81.5573 67.9807 80.2194 68.3038 78.6548 68.0105C78.6296 68.0059 78.6044 68.0014 78.5792 67.9945C78.3616 67.951 78.1394 67.896 77.9126 67.8273C77.2231 67.6142 76.5702 67.1881 75.986 66.5948C75.2919 65.8892 74.6986 64.9431 74.2656 63.8436C74.1946 63.6672 74.1305 63.4885 74.0686 63.3029C74.0389 63.2113 74.0091 63.1174 73.9793 63.0257C73.922 62.8379 73.8693 62.6478 73.8212 62.453C73.725 62.0636 73.6471 61.6627 73.5921 61.2527C73.5051 60.6227 73.473 59.837 73.6219 59.1199C73.6425 59.0168 73.6677 58.9183 73.6975 58.8198C73.7113 58.7717 73.7273 58.7213 73.7433 58.6732C73.7754 58.577 73.8121 58.4831 73.8556 58.3937C73.8968 58.3021 73.9426 58.2151 73.9953 58.1303C74.0457 58.0455 74.103 57.9654 74.1626 57.8875C74.2107 57.8279 74.2588 57.7729 74.3069 57.7248C74.9116 57.104 75.5599 57.1934 75.5599 57.1934C75.5599 57.1934 75.5668 57.1773 75.5806 57.1498C75.5874 57.1361 75.5966 57.1201 75.6081 57.0994C75.647 57.033 75.7066 56.9322 75.7844 56.8177C75.8623 56.7031 75.9654 56.5771 76.0822 56.4534C76.0983 56.4351 76.1166 56.4191 76.1349 56.4008C76.3297 56.2129 76.5702 56.0388 76.852 55.9563C78.018 55.6104 78.7144 56.1488 78.9274 56.3526C78.9343 56.3595 78.9412 56.3641 78.9457 56.371C78.9572 56.3824 78.9664 56.3916 78.9732 56.3985C78.9801 56.4053 78.9847 56.4122 78.9893 56.4168C78.9916 56.4214 78.9939 56.4237 78.9939 56.4237C78.9939 56.4237 79.7842 55.8189 80.7555 56.0228C80.7853 56.0296 80.815 56.0365 80.8448 56.0434C80.8654 56.048 80.8861 56.0525 80.9067 56.0594C80.9135 56.0594 80.9181 56.0617 80.925 56.064C80.9548 56.0709 80.9846 56.08 81.0143 56.0892C81.0487 56.1007 81.0808 56.1121 81.1151 56.1236C81.1197 56.1259 81.1243 56.1259 81.1289 56.1281C81.1449 56.1327 81.161 56.1396 81.177 56.1488C81.2503 56.1763 81.3213 56.2106 81.39 56.2473C81.4267 56.2679 81.4633 56.2862 81.5 56.3091C81.5366 56.3297 81.571 56.3504 81.6054 56.3733C81.6145 56.3778 81.6214 56.3847 81.6283 56.3893C81.6581 56.4099 81.6878 56.4305 81.7153 56.4511C81.7863 56.5015 81.8551 56.5565 81.9215 56.6161C81.9352 56.6275 81.949 56.639 81.9627 56.6504C81.9902 56.6734 82.0154 56.6986 82.0429 56.7238C82.1025 56.781 82.1597 56.8406 82.2147 56.9047C82.2308 56.9231 82.2468 56.9391 82.2605 56.9574C82.3064 57.0101 82.3522 57.0674 82.3957 57.1246C82.4255 57.1636 82.453 57.2002 82.4805 57.2415C82.5309 57.3125 82.5813 57.3881 82.6294 57.466C82.6614 57.5187 82.6935 57.5691 82.7233 57.624C82.7508 57.6744 82.7805 57.7248 82.808 57.7775C82.8126 57.7844 82.8149 57.7913 82.8195 57.7981C82.8768 57.9081 82.9317 58.0226 82.9844 58.1395C83.0371 58.2609 83.0875 58.3869 83.1379 58.5152C83.1608 58.5793 83.186 58.6457 83.2089 58.7145C83.2318 58.7809 83.2525 58.8473 83.2754 58.9161V58.9183C83.3555 59.1772 83.4266 59.4521 83.4884 59.7362C83.4884 59.7407 83.4907 59.7453 83.4907 59.7522C83.4976 59.7843 83.5044 59.8163 83.5113 59.8507C83.5182 59.8828 83.5228 59.9125 83.5296 59.9446C83.5961 60.2814 83.6488 60.6342 83.6877 61.0007H108.096C108.135 60.6296 108.188 60.2745 108.257 59.9355C108.676 57.7936 109.624 56.3183 111.033 56.0251C112.004 55.8212 112.795 56.4259 112.795 56.4259C112.795 56.4259 113.519 55.5371 114.939 55.9563C115.757 56.1992 116.231 57.1911 116.231 57.1911C116.231 57.1911 116.987 57.0857 117.628 57.8852C118.336 58.7717 118.338 60.2195 118.196 61.2504Z" fill="#BFBFBF"/>
<path d="M118.196 61.2503C117.74 64.5422 115.979 67.1789 113.876 67.8272C113.663 67.8937 113.452 67.9463 113.246 67.9876C111.631 68.3175 110.25 67.983 109.526 67.7997C108.089 67.4332 107.058 67.1789 105.558 67.0117C103.67 66.8009 101.031 66.7231 95.8931 66.7231C90.7548 66.7231 88.1158 66.7986 86.2282 67.0117C86.1824 67.0163 86.1343 67.0231 86.0885 67.0277C86.0427 67.0323 85.9968 67.0392 85.951 67.0438C85.5891 67.0873 85.2546 67.1377 84.9316 67.195C84.8904 67.2018 84.8514 67.2087 84.8125 67.2156C84.6521 67.2454 84.4941 67.2751 84.3383 67.3072C84.2993 67.3141 84.2604 67.3232 84.2215 67.3301C84.1825 67.3393 84.1436 67.3462 84.1046 67.3553C83.832 67.4149 83.5594 67.4767 83.2777 67.5455C83.2364 67.5546 83.1975 67.5661 83.1562 67.5752C82.8722 67.644 82.579 67.7195 82.2628 67.7997C81.5573 67.9807 80.2194 68.3037 78.6548 68.0105C78.6296 68.0059 78.6044 68.0013 78.5792 67.9967C78.3616 67.9532 78.1394 67.8982 77.9126 67.8295C77.2231 67.6165 76.5702 67.1904 75.986 66.5971C75.2919 65.8892 74.7009 64.9454 74.2656 63.8458C74.1969 63.6694 74.1305 63.4907 74.0686 63.3052C74.0389 63.2135 74.0091 63.1196 73.9793 63.028C73.922 62.8401 73.8693 62.65 73.8212 62.4553C73.725 62.0659 73.6471 61.665 73.5921 61.2549C73.5051 60.6249 73.473 59.8392 73.6219 59.1222C73.6425 59.0191 73.6677 58.9206 73.6975 58.8221C73.7113 58.774 73.7273 58.7236 73.7433 58.6755C73.7777 58.5793 73.8144 58.4853 73.8556 58.396C73.8968 58.3044 73.9426 58.2173 73.9953 58.1326C74.048 58.0478 74.103 57.9676 74.1648 57.8897C74.213 57.8302 74.2611 57.7752 74.3092 57.7271C74.9139 57.1063 75.5622 57.1956 75.5622 57.1956C75.5622 57.1956 75.5691 57.1796 75.5829 57.1521C75.5897 57.1383 75.5989 57.1223 75.6103 57.1017C75.6493 57.0353 75.7088 56.9345 75.7867 56.8199C75.8669 56.7054 75.9677 56.5794 76.0845 56.4557C76.1006 56.4374 76.1189 56.4213 76.1372 56.403C76.3319 56.2151 76.5725 56.0411 76.8542 55.9586C78.0203 55.6127 78.7167 56.151 78.9297 56.3549C78.9366 56.3618 78.9435 56.3663 78.948 56.3732C78.9595 56.3847 78.9687 56.3938 78.9755 56.4007C78.9824 56.4076 78.987 56.4145 78.9916 56.419C78.9939 56.4236 78.9961 56.4259 78.9961 56.4259C78.9961 56.4259 79.7865 55.8211 80.7578 56.025C80.7876 56.0319 80.8173 56.0388 80.8471 56.0456C80.8677 56.0502 80.8883 56.0548 80.909 56.0617C80.9158 56.0617 80.9204 56.064 80.9273 56.0662C80.9571 56.0731 80.9869 56.0823 81.0166 56.0915C81.051 56.1029 81.0831 56.1144 81.1174 56.1258C81.122 56.1281 81.1266 56.1281 81.1312 56.1304C81.1472 56.135 81.1632 56.1418 81.1793 56.151C81.2526 56.1785 81.3236 56.2129 81.3923 56.2495C81.429 56.2701 81.4656 56.2885 81.5023 56.3114C81.5389 56.332 81.5733 56.3526 81.6077 56.3755C81.6168 56.3801 81.6237 56.387 81.6306 56.3915C81.6603 56.4122 81.6901 56.4328 81.7176 56.4534C81.7886 56.5038 81.8574 56.5588 81.9238 56.6183C81.9375 56.6298 81.9513 56.6412 81.965 56.6527C81.9925 56.6756 82.0177 56.7008 82.0452 56.726C82.1048 56.7833 82.162 56.8428 82.217 56.907C82.233 56.9253 82.2491 56.9413 82.2628 56.9597C82.3086 57.0123 82.3545 57.0696 82.398 57.1269C82.4278 57.1658 82.4553 57.2025 82.4827 57.2437C82.5354 57.3147 82.5835 57.3903 82.6316 57.4682C82.666 57.5209 82.6958 57.5713 82.7256 57.6263C82.7531 57.6767 82.7828 57.7271 82.8103 57.7798C82.8149 57.7866 82.8172 57.7935 82.8218 57.8004C82.8813 57.9103 82.934 58.0249 82.9867 58.1417C83.0417 58.2631 83.0921 58.3891 83.1402 58.5174C83.1631 58.5815 83.1883 58.648 83.2112 58.7167C83.2341 58.7831 83.2547 58.8496 83.2777 58.9183V58.9206C83.3601 59.1794 83.4311 59.4521 83.4907 59.7384C83.4907 59.743 83.493 59.7476 83.493 59.7544C83.4999 59.7865 83.5067 59.8186 83.5136 59.8529C83.5205 59.8804 83.5251 59.9102 83.5319 59.9377C83.5319 59.94 83.5319 59.9423 83.5319 59.9469C83.5732 60.4371 83.6052 60.9686 83.6304 61.5458C83.6304 61.571 83.6327 61.5962 83.6327 61.6214C83.7037 63.1105 85.1424 64.1436 86.581 63.745C86.5879 63.7427 86.597 63.7404 86.6039 63.7381C87.6393 63.4495 88.1708 62.3087 87.7149 61.3351C87.1972 60.2332 86.9132 59.0008 86.9246 57.6973C86.9681 53.2234 90.5945 49.5398 95.0684 49.4252C99.7829 49.3061 103.643 53.0928 103.643 57.7821C103.643 58.9481 103.405 60.0591 102.972 61.0694C102.548 62.0613 103.109 63.1975 104.161 63.4426C104.52 63.5274 104.873 63.6167 105.219 63.7106C106.655 64.1024 108.094 63.0692 108.158 61.5825C108.158 61.571 108.158 61.5596 108.158 61.5458C108.181 60.9663 108.215 60.4302 108.257 59.9377C108.676 57.7958 109.624 56.3205 111.033 56.0273C112.004 55.8234 112.795 56.4282 112.795 56.4282C112.795 56.4282 113.519 55.5394 114.939 55.9586C115.757 56.2014 116.231 57.1933 116.231 57.1933C116.231 57.1933 116.987 57.0879 117.628 57.8874C118.336 58.7717 118.338 60.2195 118.196 61.2503Z" fill="white"/>
<g opacity="0.3">
<path d="M118.197 61.2503C117.741 64.5422 115.981 67.1789 113.876 67.8272C111.995 68.4045 110.341 68.0059 109.526 67.7975C106.282 66.9682 105.118 66.7231 95.8933 66.7231C86.6683 66.7231 85.5046 66.9705 82.2608 67.7975C81.4453 68.0059 79.789 68.4045 77.9105 67.8272C75.8076 67.1789 74.046 64.5422 73.5901 61.2503C73.5145 60.6914 73.4778 60.011 73.5764 59.3673C73.5809 59.4063 73.5855 59.4452 73.5901 59.4818C74.046 62.7737 75.8053 65.4104 77.9105 66.0587C79.789 66.6383 81.4453 66.2374 82.2608 66.029C85.5046 65.1997 86.6683 64.4804 95.8933 64.4804C105.118 64.4804 106.282 65.1997 109.526 66.029C110.341 66.2374 111.998 66.636 113.876 66.0587C115.979 65.4127 117.741 62.7737 118.197 59.4818C118.201 59.4452 118.206 59.4063 118.21 59.3673C118.309 60.011 118.272 60.6914 118.197 61.2503Z" fill="#000072"/>
</g>
<path d="M107.881 60.9778C107.878 59.1108 108.41 56.8772 110.176 55.8784C110.65 55.6242 111.214 55.4913 111.75 55.5646C112.199 55.6196 112.616 55.7799 112.991 56.025C112.989 56.025 113.035 56.0502 112.968 56.0113C112.833 55.938 112.65 55.9586 112.536 56.0617C113.129 55.4363 114.251 55.221 115.181 55.5715C115.823 55.8143 116.292 56.3664 116.611 56.9482C116.551 56.8222 116.368 56.7237 116.244 56.7421C117.126 56.7123 117.852 57.2873 118.244 57.9997C119.064 59.585 118.7 61.5459 118.244 63.1815C117.635 65.1104 116.542 67.0484 114.661 68.0105C113.447 68.5924 112.038 68.6863 110.721 68.5145C109.358 68.3083 108.055 67.8456 106.71 67.6394C103.168 67.1011 99.4894 67.2294 95.8974 67.1835C92.3032 67.2225 88.6264 67.0919 85.0826 67.6257C83.7379 67.8318 82.4344 68.29 81.0714 68.4962C79.8756 68.6542 78.6225 68.5763 77.4886 68.1434C75.1016 67.1538 73.8164 64.5308 73.3056 62.1438C72.9986 60.6387 72.8428 58.7626 73.9103 57.5049C74.2883 57.0628 74.9045 56.7192 75.5483 56.7489C75.5528 56.7466 75.4589 56.7489 75.42 56.765C75.3215 56.7948 75.2367 56.8635 75.1909 56.9505C75.5345 56.3137 76.0797 55.6975 76.8151 55.5142C77.6466 55.2737 78.6271 55.4317 79.2639 56.0732C79.2594 56.0686 79.3075 56.1144 79.2525 56.064C79.2158 56.0342 79.1723 56.0067 79.1265 55.9907C79.0303 55.9563 78.9157 55.9655 78.8287 56.0136C78.7645 56.0525 78.8081 56.025 78.8058 56.0273L78.8287 56.0136C79.6511 55.4753 80.6453 55.379 81.5364 55.8143C83.3576 56.7604 83.8616 59.0993 83.912 60.9755C83.9234 61.2412 83.5271 61.2847 83.4813 61.0213C83.3003 60.1416 83.0713 59.2803 82.7185 58.4945C82.1206 57.1017 80.7759 55.8097 79.3052 56.7398L79.2914 56.7489C79.2777 56.7558 79.3098 56.7398 79.2319 56.7856C79.1196 56.8474 78.973 56.8589 78.8516 56.8154C78.76 56.7856 78.6889 56.7283 78.6271 56.6619C78.1896 56.245 77.4863 56.19 76.9205 56.3939C76.5379 56.5428 76.2538 56.8841 76.0385 57.2346C75.9583 57.3904 75.8575 57.5576 75.672 57.6034C75.6216 57.624 75.5139 57.624 75.5024 57.6217C75.3238 57.6172 75.1474 57.6675 74.9779 57.7569C73.6721 58.5358 73.9058 60.6708 74.1761 61.9605C74.6159 63.9947 75.6399 66.1916 77.5436 67.1835C79.0142 67.8639 80.7026 67.7494 82.2397 67.3324C86.6816 66.0656 91.3479 66.3176 95.902 66.2535C100.458 66.3107 105.125 66.0565 109.569 67.3187C111.014 67.715 112.561 67.8204 113.976 67.2866C116.031 66.4276 117.163 64.0428 117.612 61.9559C117.811 61.0327 117.919 60.0317 117.71 59.1108C117.557 58.3914 117.074 57.6446 116.302 57.6309C116.29 57.6332 116.18 57.6309 116.128 57.6126C115.997 57.5759 115.889 57.4843 115.827 57.3697C115.8 57.3193 115.782 57.285 115.754 57.2392C115.53 56.8749 115.232 56.5176 114.824 56.3824C114.29 56.2129 113.649 56.2587 113.225 56.6252C113.204 56.6436 113.179 56.6642 113.161 56.6848C113.017 56.8474 112.758 56.8933 112.568 56.7902C112.144 56.5061 111.622 56.3435 111.12 56.4534C109.306 56.8864 108.724 59.4315 108.323 61.0213C108.247 61.2756 107.885 61.232 107.881 60.9778Z" fill="#000072"/>
<path d="M78.6932 65.3475C79.8528 65.2831 80.7329 64.1486 80.6589 62.8133C80.5848 61.478 79.5847 60.4477 78.425 60.512C77.2653 60.5763 76.3852 61.7109 76.4593 63.0462C76.5333 64.3814 77.5335 65.4118 78.6932 65.3475Z" fill="#FFA1A8"/>
<path d="M75.7866 61.5399C76.2249 61.4767 76.5203 61.0103 76.4465 60.4981C76.3726 59.9859 75.9575 59.622 75.5192 59.6851C75.0809 59.7483 74.7854 60.2148 74.8593 60.7269C74.9331 61.2391 75.3483 61.6031 75.7866 61.5399Z" fill="#FFA1A8"/>
<path d="M77.8921 59.8146C78.3304 59.7514 78.6258 59.285 78.552 58.7728C78.4781 58.2606 78.063 57.8966 77.6247 57.9598C77.1864 58.023 76.8909 58.4894 76.9648 59.0016C77.0386 59.5138 77.4538 59.8778 77.8921 59.8146Z" fill="#FFA1A8"/>
<path d="M80.5053 60.2129C80.9436 60.1497 81.2391 59.6833 81.1652 59.1711C81.0914 58.6589 80.6762 58.2949 80.2379 58.3581C79.7996 58.4213 79.5042 58.8877 79.578 59.3999C79.6519 59.9121 80.067 60.2761 80.5053 60.2129Z" fill="#FFA1A8"/>
<path d="M115.226 63.0415C115.3 61.7062 114.42 60.5716 113.261 60.5073C112.101 60.443 111.101 61.4733 111.027 62.8086C110.953 64.1439 111.833 65.2785 112.992 65.3428C114.152 65.4071 115.152 64.3768 115.226 63.0415Z" fill="#FFA1A8"/>
<path d="M116.829 60.7265C116.903 60.2143 116.608 59.7479 116.169 59.6847C115.731 59.6215 115.316 59.9855 115.242 60.4977C115.168 61.0098 115.464 61.4763 115.902 61.5395C116.34 61.6027 116.755 61.2387 116.829 60.7265Z" fill="#FFA1A8"/>
<path d="M114.726 59.0018C114.8 58.4896 114.504 58.0232 114.066 57.96C113.628 57.8968 113.212 58.2608 113.139 58.7729C113.065 59.2851 113.36 59.7515 113.798 59.8147C114.237 59.8779 114.652 59.5139 114.726 59.0018Z" fill="#FFA1A8"/>
<path d="M112.112 59.4011C112.185 58.8889 111.89 58.4225 111.452 58.3593C111.013 58.2961 110.598 58.66 110.524 59.1722C110.45 59.6844 110.746 60.1508 111.184 60.214C111.623 60.2772 112.038 59.9132 112.112 59.4011Z" fill="#FFA1A8"/>
<g opacity="0.3">
<path d="M77.7683 36.2647C77.773 36.2739 77.7776 36.2809 77.7823 36.2902L77.7637 36.26C77.766 36.2623 77.766 36.2623 77.7683 36.2647Z" fill="#6B184E"/>
<path d="M77.7822 36.2898L78.3114 37.1397C78.1281 36.8625 77.9517 36.583 77.7822 36.2898Z" fill="#6B184E"/>
</g>
<g opacity="0.3">
<path d="M77.7686 35.9919C77.7708 35.9965 77.7754 35.9987 77.7776 36.001C77.7822 36.0078 77.7867 36.0123 77.7912 36.0191L77.7686 35.9919Z" fill="#6B184E"/>
<path d="M78.3022 36.6471C78.1258 36.4432 77.954 36.2347 77.7891 36.0171L78.3022 36.6471Z" fill="#6B184E"/>
<path d="M113.508 36.6471L114.021 36.0217C113.858 36.2371 113.686 36.4455 113.508 36.6471Z" fill="#6B184E"/>
</g>
<path d="M78.3107 36.8648C78.132 36.6609 77.9602 36.4501 77.793 36.2302L78.3107 36.8648Z" fill="white"/>
<path d="M113.473 36.8648L113.988 36.2325C113.825 36.4502 113.651 36.6609 113.473 36.8648Z" fill="white"/>
<g opacity="0.25">
<path d="M113.999 35.7445C113.997 35.7513 113.993 35.7581 113.99 35.7649C113.993 35.7604 113.995 35.7536 113.999 35.7445C113.999 35.7468 113.997 35.7468 113.999 35.7445Z" fill="#6B184E"/>
</g>
<g opacity="0.3">
<path d="M106.841 43.1919C99.7073 45.5514 92.1751 45.5583 85.0576 43.2309C85.2111 42.8781 85.36 42.5413 85.502 42.2206C85.6074 41.9847 85.7105 41.7556 85.8113 41.5357C85.9373 41.2585 86.0587 40.9973 86.1709 40.7522C86.849 39.2884 87.2843 38.4316 87.2843 38.4316H104.628C104.628 38.4316 104.633 38.4431 104.644 38.466C104.681 38.537 104.777 38.7272 104.919 39.0204C105.166 39.5289 105.56 40.349 106.046 41.412C106.064 41.4532 106.083 41.4944 106.103 41.5357C106.193 41.735 106.289 41.9434 106.385 42.1588C106.532 42.4864 106.685 42.83 106.841 43.1919Z" fill="#000072"/>
</g>
<path d="M118.308 32.5467C118.21 33.4126 116.443 32.5925 116.059 32.4023C116.029 32.3863 115.994 32.4184 116.004 32.4573C116.026 32.5512 116.072 32.7185 116.162 32.9613C116.217 33.1056 116.285 33.2774 116.375 33.479C116.675 34.1411 116.918 34.6565 116.782 35.0047C116.638 35.3735 116.038 35.5178 115.289 35.4331C115 35.401 114.693 35.5659 114.402 35.8179C114.274 35.9302 114.146 36.0585 114.022 36.1936L114.017 36.1959L113.992 36.2303C113.999 36.2211 114.006 36.2097 114.013 36.2005C113.907 36.3173 113.807 36.441 113.708 36.5624C113.626 36.6655 113.546 36.7686 113.472 36.8671C113.44 36.9038 113.408 36.9404 113.374 36.9748C112.73 37.6987 112.004 38.3424 111.216 38.9151C110.148 39.6642 108.973 40.2552 107.731 40.7202V40.7111C107.731 40.7111 106.029 41.3387 103.514 41.9137C103.514 41.9137 101.265 42.3948 99.2097 42.6605C99.2097 42.6605 97.6382 42.8461 95.9087 42.8461C94.1814 42.8461 92.5824 42.6605 92.5824 42.6605C90.5276 42.3948 88.278 41.9137 88.278 41.9137C85.7627 41.3365 84.0606 40.7111 84.0606 40.7111V40.7202C82.8213 40.2575 81.6438 39.6665 80.5763 38.9151C79.8204 38.3653 79.1217 37.7491 78.494 37.0572C78.4344 36.9931 78.3772 36.929 78.3199 36.8648C78.2328 36.7503 78.1389 36.6312 78.0427 36.5097C77.9557 36.4021 77.8663 36.2967 77.7747 36.1936C77.7816 36.2051 77.7907 36.2165 77.7976 36.228L77.7678 36.189C77.7678 36.189 77.7701 36.1913 77.7724 36.1913C77.6693 36.0768 77.5593 35.9645 77.4494 35.866C77.1378 35.5843 76.8103 35.3918 76.501 35.4262C75.7542 35.511 75.1517 35.3666 75.0074 34.9978C74.8722 34.6496 75.1151 34.1342 75.4129 33.4721C75.4747 33.3347 75.5251 33.211 75.5709 33.101C75.6992 32.7757 75.7588 32.5604 75.7863 32.4504C75.7931 32.4115 75.7634 32.3817 75.7313 32.3955C75.3464 32.5833 73.5802 33.4057 73.4817 32.5398C73.4634 32.3909 73.5252 32.1504 73.6283 31.8434C73.8574 31.1607 74.2881 30.1505 74.4736 29.1242C74.5996 28.4301 74.7119 27.8253 74.8104 27.3007C74.9478 26.5745 75.0601 25.9996 75.1494 25.546C75.3991 24.2906 75.4862 23.9699 75.4862 23.9699C75.4908 23.9401 76.2536 20.8544 77.3921 18.5819C76.2559 15.5489 75.5091 6.70872 77.4127 4.86233C78.9407 3.38018 84.686 6.49109 86.8417 8.66735C87.4671 8.4062 88.1612 8.18628 88.8759 8.00302C89.7876 7.77165 90.736 7.59526 91.6317 7.46697C92.7336 7.30662 93.7553 7.21499 94.5319 7.1623C95.21 7.11877 95.7025 7.10274 95.8949 7.10274C96.0873 7.10274 96.573 7.11648 97.2442 7.16001C97.4572 7.17604 97.6932 7.19208 97.9406 7.21269C98.5958 7.26767 99.3563 7.35014 100.158 7.46697C101.054 7.59526 102.002 7.77165 102.914 8.00302C103.631 8.18628 104.323 8.40391 104.948 8.66506C107.104 6.4888 112.849 3.37789 114.377 4.86004C116.281 6.70643 115.534 15.5466 114.398 18.5796C115.117 20.016 115.687 21.7776 116.008 22.8864C116.196 23.5324 116.301 23.9584 116.304 23.9676C116.304 23.9676 116.391 24.2929 116.64 25.5551C116.73 25.9996 116.837 26.5608 116.97 27.2664C117.071 27.8001 117.186 28.4163 117.314 29.1242C117.495 30.1161 117.903 31.092 118.136 31.7747C118.253 32.1206 118.326 32.3863 118.308 32.5467Z" fill="#BFBFBF"/>
<g opacity="0.5">
<path d="M115.537 10.9443C115.491 8.72452 115.156 6.79796 114.378 6.04428C112.85 4.56214 107.102 7.67304 104.949 9.8493C104.323 9.58815 103.629 9.36824 102.914 9.18726C102.003 8.9536 101.054 8.7795 100.159 8.65122C99.3568 8.53439 98.5963 8.45192 97.9411 8.39694C97.6937 8.37632 97.4577 8.35799 97.2447 8.34425C96.5735 8.30072 96.0878 8.28698 95.8954 8.28698C95.7007 8.28698 95.2105 8.30072 94.5324 8.34654C93.7558 8.39923 92.7341 8.49086 91.6322 8.65122C90.7365 8.78179 89.7881 8.95589 88.8764 9.18726C88.1594 9.37053 87.4676 9.59044 86.8422 9.85159C84.6865 7.67533 78.9412 4.56443 77.4132 6.04658C76.6344 6.80254 76.2976 8.72681 76.2518 10.9489C76.1945 8.2572 76.4992 5.75793 77.4132 4.87368C78.9412 3.39154 84.6865 6.50244 86.8422 8.6787C87.4676 8.41755 88.1617 8.19764 88.8764 8.01437C89.7881 7.783 90.7365 7.60661 91.6322 7.47833C92.7341 7.31797 93.7558 7.22634 94.5324 7.17365C95.2105 7.13012 95.703 7.11409 95.8954 7.11409C96.0878 7.11409 96.5735 7.12783 97.2447 7.17136C97.4577 7.18739 97.6937 7.20343 97.9411 7.22405C98.5963 7.27903 99.3568 7.36149 100.159 7.47833C101.054 7.60661 102.003 7.783 102.914 8.01437C103.631 8.19764 104.323 8.41526 104.949 8.67641C107.104 6.50015 112.85 3.38925 114.378 4.87139C115.289 5.75335 115.594 8.25033 115.537 10.9443Z" fill="white"/>
</g>
<path d="M75.567 33.1079C75.6953 32.7826 75.7549 32.5673 75.7824 32.4573C75.7892 32.4183 75.7594 32.3886 75.7274 32.4023C75.3425 32.5902 73.5763 33.4126 73.4778 32.5466C73.4595 32.3977 73.5213 32.1572 73.6244 31.8502C75.3448 31.0966 77.6631 30.2833 80.2196 29.9305C80.2173 29.9305 77.9334 31.273 75.567 33.1079Z" fill="white"/>
<path d="M81.2343 33.4309C81.1908 33.4813 79.8919 35.0207 78.4899 37.0641C78.4304 37 78.3731 36.9358 78.3158 36.8717C78.2288 36.7572 78.1348 36.638 78.0386 36.5166C77.9516 36.409 77.8622 36.3036 77.7706 36.2005C77.7775 36.2119 77.7866 36.2234 77.7935 36.2348L77.7637 36.1959C77.7637 36.1959 77.766 36.1982 77.7683 36.1982C77.6652 36.0837 77.5553 35.9714 77.4453 35.8729C78.538 35.0184 79.814 34.1571 81.2343 33.4309Z" fill="white"/>
<path d="M79.9014 26.3226C79.9014 26.3226 77.5281 26.6272 74.8066 27.3076C74.9441 26.5814 75.0563 26.0064 75.1457 25.5529C76.6095 25.6468 78.2451 25.8713 79.9014 26.3226Z" fill="white"/>
<path d="M118.309 32.5466C118.21 33.4125 116.444 32.5924 116.059 32.4023C116.029 32.3863 115.995 32.4183 116.004 32.4573C116.027 32.5512 116.073 32.7184 116.162 32.9612C113.865 31.2019 111.702 29.9282 111.702 29.9282C114.181 30.2718 116.435 31.0461 118.139 31.7792C118.254 32.1205 118.327 32.3863 118.309 32.5466Z" fill="white"/>
<path d="M114.401 35.8179C114.273 35.9301 114.144 36.0584 114.021 36.1936L114.016 36.1958L113.991 36.2302C113.998 36.221 114.005 36.2096 114.011 36.2004C113.906 36.3173 113.805 36.441 113.707 36.5624C113.624 36.6655 113.544 36.7685 113.471 36.8671C113.439 36.9037 113.407 36.9404 113.372 36.9747C111.993 34.9726 110.729 33.4767 110.688 33.4263C112.073 34.1387 113.324 34.9817 114.401 35.8179Z" fill="white"/>
<path d="M116.971 27.2709C114.309 26.6158 112.019 26.3225 112.019 26.3225C113.624 25.8827 115.212 25.6605 116.641 25.5597C116.731 26.0064 116.838 26.5676 116.971 27.2709Z" fill="white"/>
<g opacity="0.3">
<path d="M116.375 33.479C116.675 34.141 116.918 34.6564 116.783 35.0046C116.639 35.3735 116.039 35.5178 115.29 35.433C115.001 35.401 114.694 35.5659 114.403 35.8179C114.275 35.9301 114.146 36.0584 114.023 36.1936L114.018 36.1959L113.993 36.2302C114 36.2211 114.007 36.2096 114.014 36.2004C113.908 36.3173 113.807 36.441 113.709 36.5624C113.626 36.6655 113.546 36.7686 113.473 36.8671C113.441 36.9037 113.409 36.9404 113.374 36.9747C112.731 37.6986 112.004 38.3423 111.216 38.915C110.149 39.6641 108.974 40.2552 107.732 40.7202V40.711C107.732 40.711 106.03 41.3387 103.515 41.9137C103.515 41.9137 101.265 42.3948 99.2104 42.6605C99.2104 42.6605 97.6389 42.8461 95.9093 42.8461C94.1821 42.8461 92.5831 42.6605 92.5831 42.6605C90.5282 42.3948 88.2787 41.9137 88.2787 41.9137C85.7634 41.3364 84.0613 40.711 84.0613 40.711V40.7202C82.822 40.2574 81.6445 39.6664 80.577 38.915C79.821 38.3652 79.1223 37.749 78.4947 37.0572C78.4351 36.9931 78.3778 36.9289 78.3206 36.8648C78.2335 36.7502 78.1396 36.6311 78.0434 36.5097C77.9563 36.402 77.867 36.2967 77.7754 36.1936C77.7822 36.205 77.7914 36.2165 77.7983 36.2279L77.7685 36.189C77.7685 36.189 77.7708 36.1913 77.7731 36.1913C77.67 36.0767 77.56 35.9645 77.4501 35.866C77.1385 35.5842 76.8109 35.3918 76.5017 35.4261C75.7549 35.5109 75.1524 35.3666 75.0081 34.9978C74.8729 34.6496 75.1157 34.1341 75.4135 33.4721C75.4754 33.3346 75.5258 33.2109 75.5716 33.101C75.5831 33.0758 75.5922 33.0506 75.6014 33.0254C75.8511 33.0827 76.1603 33.0895 76.5017 33.0506C76.8109 33.0139 77.1408 33.2087 77.4501 33.4904C77.56 33.5889 77.6677 33.6989 77.7731 33.8157C77.7731 33.8157 77.7708 33.8134 77.7685 33.8134L77.7983 33.8524C77.7914 33.8409 77.7822 33.8295 77.7754 33.818C77.867 33.9211 77.9586 34.0265 78.0434 34.1341C78.1419 34.2556 78.2335 34.3747 78.3206 34.4892C78.3778 34.5534 78.4351 34.6175 78.4947 34.6816C79.1223 35.3712 79.821 35.9874 80.577 36.5395C81.6445 37.2886 82.8197 37.8796 84.0613 38.3446V38.3355C84.0613 38.3355 85.7634 38.9631 88.2787 39.5381C88.2787 39.5381 90.5282 40.0192 92.5831 40.2849C92.5831 40.2849 94.1821 40.4705 95.9093 40.4705C97.6389 40.4705 99.2104 40.2849 99.2104 40.2849C101.265 40.0192 103.515 39.5381 103.515 39.5381C106.032 38.9609 107.732 38.3355 107.732 38.3355V38.3446C108.971 37.8819 110.149 37.2909 111.216 36.5395C112.004 35.9668 112.731 35.3231 113.374 34.5992C113.409 34.5625 113.441 34.5282 113.473 34.4915C113.546 34.393 113.626 34.2899 113.709 34.1868C113.807 34.0654 113.908 33.9417 114.014 33.8249C114.007 33.834 114 33.8455 113.993 33.8547L114.018 33.8203L114.023 33.818C114.146 33.6828 114.272 33.5523 114.403 33.4423C114.696 33.1903 115.001 33.0254 115.29 33.0575C115.631 33.0964 115.94 33.0872 116.19 33.0323C116.238 33.1628 116.3 33.3117 116.375 33.479Z" fill="#000072"/>
</g>
<path d="M95.652 14.3165C95.2992 12.2616 94.6555 8.46807 94.5432 7.4143C94.5295 7.27914 94.6303 7.16002 94.7655 7.15314C95.3198 7.12107 95.7207 7.10962 95.8902 7.10962C96.0598 7.10962 96.4538 7.11878 97.0013 7.15314C97.1364 7.16002 97.2372 7.28143 97.2235 7.4143C97.1112 8.46807 96.4698 12.2616 96.117 14.3165C96.0735 14.5776 95.6978 14.5776 95.652 14.3165Z" fill="white"/>
<path d="M102.781 8.2847L100.557 12.9831C100.449 13.2122 100.103 13.1343 100.105 12.88L100.151 7.75782C100.154 7.60891 100.289 7.49895 100.433 7.52644L102.609 7.95024C102.765 7.98231 102.848 8.14496 102.781 8.2847Z" fill="white"/>
<path d="M91.227 12.9831L89.0027 8.2847C88.9362 8.14496 89.0187 7.98002 89.1722 7.95024L91.3485 7.52644C91.4928 7.49895 91.6302 7.60891 91.6302 7.75782L91.676 12.8823C91.6806 13.1343 91.3347 13.2145 91.227 12.9831Z" fill="white"/>
<g opacity="0.3">
<path d="M77.7979 36.2347L78.3133 36.8647C78.1323 36.6608 77.9605 36.4524 77.7979 36.2347Z" fill="#6B184E"/>
<path d="M113.473 36.8647L113.988 36.2347C113.823 36.4524 113.649 36.6608 113.473 36.8647Z" fill="#6B184E"/>
</g>
<g opacity="0.3">
<path d="M77.7683 34.1753C77.7776 34.1893 77.787 34.2009 77.7986 34.2149L77.7637 34.173C77.7637 34.173 77.7683 34.173 77.7683 34.1753Z" fill="#6B184E"/>
<path d="M114.016 34.1754C114.018 34.1731 114.02 34.1731 114.02 34.1708L113.985 34.2127C113.997 34.201 114.006 34.1894 114.016 34.1754Z" fill="#6B184E"/>
</g>
<path d="M81.6606 12.5754C80.1533 14.1056 79.2049 16.2452 79.0697 15.9955C79.056 15.9726 79.0445 15.9429 79.0308 15.9085C78.7421 15.2098 78.2633 12.4356 78.2656 9.96157C78.2679 9.56297 78.2771 9.21019 78.3 8.90093C78.3573 8.0625 78.4833 7.52645 78.6367 7.18283C78.8269 6.76361 79.2576 6.63304 79.6378 6.77507C80.6504 7.15076 83.5253 8.94217 84.4622 10.0899C84.6295 10.2937 83.1679 11.0451 81.6606 12.5754Z" fill="#FFA1A8"/>
<path d="M81.6604 12.5754C80.1531 14.1056 79.2047 16.2452 79.0695 15.9955C79.0558 15.9726 79.0443 15.9429 79.0306 15.9085C79.365 14.6119 80.2905 12.8182 81.0007 11.5216C81.9697 9.75082 80.6341 8.34427 79.475 7.92505C79.0764 7.78073 78.6068 8.39924 78.2998 8.90093C78.3571 8.0625 78.4831 7.52645 78.6366 7.18283C78.8267 6.76361 79.2574 6.63304 79.6376 6.77507C80.6502 7.15076 83.5251 8.94217 84.4621 10.0899C84.6293 10.2937 83.1678 11.0451 81.6604 12.5754Z" fill="#FF8392"/>
<path d="M79.1061 16.4491C79.0992 16.4491 79.0923 16.4491 79.0832 16.4491C78.9159 16.4445 78.7693 16.3506 78.6868 16.2017C78.3478 15.574 77.8278 12.5296 77.8301 9.96386C77.8301 8.58251 77.9652 7.6135 78.2378 7.00644C78.5105 6.40625 79.161 6.13822 79.7864 6.36959C80.8242 6.75445 83.7976 8.59167 84.7987 9.81725C84.8835 9.92263 84.9224 10.0532 84.9064 10.1884C84.872 10.4862 84.62 10.6763 84.013 11.1368C83.4723 11.5468 82.7324 12.1103 81.9696 12.8823C81.1311 13.7322 80.4668 14.7906 80.0247 15.4916C79.5665 16.2177 79.4199 16.4491 79.1061 16.4491ZM78.6983 9.96386C78.696 11.9019 79.0007 14.0071 79.2458 15.0953C79.2618 15.0723 79.2756 15.0471 79.2893 15.0242C79.7498 14.2912 80.4462 13.187 81.351 12.2684C82.1551 11.4506 82.9569 10.8435 83.4884 10.4403C83.6327 10.3304 83.7885 10.2136 83.9076 10.1173C82.8446 9.0315 80.3362 7.49438 79.4863 7.18054C79.3328 7.12327 79.1313 7.14159 79.0328 7.36151C78.8128 7.84945 78.7006 8.72454 78.6983 9.96386Z" fill="#000072"/>
<path d="M110.006 12.5754C111.514 14.1056 112.462 16.2452 112.597 15.9955C112.611 15.9726 112.622 15.9429 112.636 15.9085C112.925 15.2098 113.403 12.4356 113.401 9.96157C113.399 9.56297 113.39 9.21019 113.367 8.90093C113.31 8.0625 113.184 7.52645 113.03 7.18283C112.84 6.76361 112.409 6.63304 112.029 6.77507C111.016 7.15076 108.141 8.94217 107.205 10.0899C107.037 10.2937 108.497 11.0451 110.006 12.5754Z" fill="#FFA1A8"/>
<path d="M110.006 12.5754C111.514 14.1056 112.462 16.2452 112.597 15.9955C112.611 15.9726 112.622 15.9429 112.636 15.9085C112.302 14.6119 111.376 12.8182 110.666 11.5216C109.697 9.75082 111.032 8.34427 112.192 7.92505C112.59 7.78073 113.06 8.39924 113.367 8.90093C113.31 8.0625 113.184 7.52645 113.03 7.18283C112.84 6.76361 112.409 6.63304 112.029 6.77507C111.016 7.15076 108.141 8.94217 107.205 10.0899C107.037 10.2937 108.497 11.0451 110.006 12.5754Z" fill="#FF8392"/>
<path d="M112.561 16.4491C112.247 16.4491 112.101 16.2177 111.64 15.487C111.2 14.786 110.534 13.7276 109.695 12.8801C108.935 12.1081 108.192 11.5445 107.652 11.1345C107.045 10.674 106.793 10.4839 106.758 10.1861C106.742 10.0509 106.781 9.92034 106.866 9.81496C107.865 8.59167 110.841 6.75216 111.878 6.36731C112.504 6.13594 113.154 6.40396 113.425 7.00186C113.7 7.61121 113.832 8.57793 113.832 9.96157C113.835 12.5273 113.315 15.5717 112.976 16.1994C112.895 16.3483 112.747 16.4422 112.579 16.4468C112.577 16.4491 112.568 16.4491 112.561 16.4491ZM107.762 10.1196C107.879 10.2159 108.034 10.3327 108.181 10.4426C108.71 10.8458 109.512 11.4529 110.318 12.2707C111.221 13.187 111.917 14.2935 112.38 15.0265C112.394 15.0494 112.41 15.0746 112.424 15.0975C112.669 14.0094 112.971 11.9042 112.971 9.96615C112.971 8.72683 112.859 7.85175 112.639 7.3638C112.54 7.14389 112.339 7.12785 112.185 7.18512C111.333 7.49667 108.825 9.03609 107.762 10.1196Z" fill="#000072"/>
<path d="M92.5484 42.8804C89.6024 42.6788 86.6931 42.1084 83.9052 41.1234L84.4916 40.7156V40.7248V41.3525C83.1721 40.8806 81.871 40.3147 80.6935 39.5336C79.6947 38.8761 78.7898 38.0743 77.9972 37.1786L77.9881 37.1672L77.9835 37.1626C78.0178 37.1947 78.0499 37.229 78.0912 37.2496L77.9789 37.158L77.4154 36.4662L77.436 36.4914L77.4314 36.4868L78.1095 35.9141L78.6616 36.5899L77.9652 37.1397C77.6353 36.7205 77.3214 36.299 76.9022 36.0103C76.7717 35.921 76.6571 35.8774 76.5678 35.8797C76.5036 35.8774 76.4372 35.8912 76.3708 35.8935C75.6262 35.9691 74.5175 35.7446 74.5198 34.7962C74.5152 34.4342 74.6618 34.0975 74.7809 33.7997C74.978 33.3324 75.2047 32.8925 75.333 32.4069L75.3399 32.3771L75.3422 32.3634L75.3445 32.3565L75.3399 32.3817C75.2872 32.6955 75.6331 32.9635 75.9286 32.8101L75.9126 32.8192L75.8782 32.8353L75.8095 32.8673C74.9871 33.2407 73.3011 33.9555 73.0285 32.6062C72.9941 32.203 73.143 31.9075 73.2415 31.5753C73.521 30.7758 73.828 30.0107 73.9929 29.1929C74.1876 28.1735 74.3686 27.138 74.5679 26.1186C74.7328 25.2894 74.9298 24.2264 75.1269 23.5117C75.6079 21.7524 76.1646 20.0297 76.971 18.3803L76.9503 18.7537C75.8462 15.6955 75.0742 7.8495 76.6731 5.04327C76.7808 4.86001 76.9228 4.68361 77.0763 4.52326L77.129 4.47973L77.2367 4.39268C78.1576 3.74668 79.4038 4.03074 80.3774 4.30563C82.7713 5.06847 85.3736 6.58956 87.1902 8.33057L86.6496 8.2229C87.3941 7.91593 88.1546 7.68685 88.9175 7.49443C90.4409 7.11644 91.9894 6.89653 93.5449 6.74762C94.3329 6.6789 95.0935 6.62163 95.8953 6.61018C96.6947 6.61934 97.4553 6.6789 98.2456 6.74762C100.589 6.98129 102.937 7.33636 105.143 8.22061L104.598 8.32828C105.368 7.56773 106.222 6.94692 107.12 6.36506C108.783 5.31358 112.751 3.10983 114.556 4.3881C115.786 5.35482 115.947 7.96404 116.013 9.40724C116.077 11.5079 115.919 13.5925 115.592 15.6634C115.415 16.7149 115.214 17.7412 114.847 18.7583L114.826 18.378C115.633 20.0297 116.192 21.7501 116.673 23.5117C116.762 23.8484 116.815 24.0729 116.893 24.4372C117.193 25.9033 117.491 27.4542 117.754 28.9249C117.846 29.4655 117.997 29.9809 118.178 30.5055C118.297 30.8583 118.43 31.2065 118.56 31.5776C118.73 32.0404 118.961 32.7184 118.521 33.1422C117.859 33.7539 116.595 33.1583 115.912 32.849L115.878 32.833L115.862 32.8238C115.912 32.849 115.983 32.8696 116.057 32.8673C116.192 32.8673 116.315 32.7963 116.389 32.6955C116.476 32.5993 116.476 32.4412 116.46 32.3656L116.462 32.3794L116.469 32.4069L116.503 32.526C116.803 33.6004 118.127 35.2589 116.43 35.8225C116.018 35.9416 115.647 35.9301 115.241 35.8912C115.227 35.8935 115.214 35.8912 115.2 35.8912C115.131 35.8958 115.014 35.9416 114.895 36.0218C114.474 36.3104 114.164 36.7319 113.835 37.1488L113.12 36.5853L113.672 35.9095L114.366 36.496C114.352 36.5097 114.384 36.4731 114.382 36.4731L113.816 37.1649L113.699 37.2611C113.743 37.2405 113.777 37.2061 113.812 37.1717L113.807 37.1763C112.231 38.9975 110.135 40.3285 107.888 41.1463L107.283 41.3708V40.7248V40.7156L107.885 41.1348C105.787 41.8725 103.638 42.4085 101.434 42.6788C100.706 42.775 99.9752 42.8484 99.2375 42.8804C98.9695 42.885 98.926 42.5093 99.1803 42.4498L101.311 41.9824C102.552 41.7098 104.316 41.3089 105.521 40.9447C106.417 40.695 107.313 40.3949 108.179 40.0788V40.7156V40.7248L107.574 40.3056C108.77 39.8589 109.913 39.2839 110.953 38.5531C111.734 37.9827 112.46 37.3321 113.099 36.6059C113.14 36.5532 113.193 36.5051 113.25 36.4708L113.134 36.567L113.656 35.9256L113.676 35.9004L113.681 35.8958L114.375 36.4822L113.823 37.158L113.108 36.5945C113.631 35.9508 114.21 35.094 115.133 34.9772C115.33 34.968 115.532 35.0069 115.727 35.0001C115.885 34.9978 116.043 34.9795 116.164 34.9428C116.29 34.9084 116.359 34.8443 116.354 34.842C116.386 34.6221 116.258 34.3907 116.171 34.1548C115.958 33.6645 115.713 33.1628 115.573 32.6383C115.413 32.1778 115.878 31.77 116.309 32.0152L116.368 32.0449L116.49 32.0999C116.918 32.2763 117.399 32.5008 117.857 32.471C117.896 32.4642 117.894 32.455 117.871 32.4756C117.848 32.4985 117.846 32.5237 117.85 32.4985C117.827 32.3221 117.756 32.0862 117.681 31.8777C117.392 31.0691 117.065 30.2352 116.893 29.3784C116.57 27.7588 116.222 25.6673 115.844 24.0661C115.369 22.2724 114.79 20.4649 113.974 18.8041L113.883 18.6186L113.954 18.4238C114.968 15.597 115.69 8.13356 114.281 5.54037C114.222 5.46019 114.171 5.36169 114.105 5.29984L114.059 5.24715L114.036 5.22195C113.995 5.19904 113.97 5.15781 113.924 5.13948C113.887 5.12345 113.857 5.09825 113.816 5.0845L113.692 5.03869C111.99 4.67445 109.102 6.2803 107.649 7.19891C106.706 7.80597 105.821 8.47718 105.063 9.26292C103.59 8.63066 102 8.26872 100.41 8.0236C98.9237 7.79681 97.3934 7.6502 95.893 7.61584C95.1553 7.62729 94.3787 7.67998 93.6342 7.74412C91.3984 7.96175 89.1191 8.30079 87.0276 9.13235L86.7206 9.25834C85.2636 7.77161 83.3852 6.61934 81.4861 5.75571C80.5583 5.35482 78.6639 4.61031 77.8094 5.16468C77.7956 5.17614 77.7819 5.18759 77.7659 5.19904L77.7429 5.21508L77.72 5.24257L77.6742 5.29526C77.4291 5.57932 77.2825 5.95959 77.1657 6.31924C76.2791 9.35914 76.79 15.6176 77.8941 18.6163C77.2321 19.9174 76.7327 21.3263 76.3066 22.7305C76.1692 23.1681 76.0432 23.6492 75.9263 24.0959C75.8485 24.3982 75.7568 24.8747 75.6881 25.1817C75.4659 26.2538 75.1154 28.1483 74.9138 29.2273C74.726 30.3062 74.2403 31.3325 73.9448 32.3656C73.9242 32.4412 73.9265 32.4962 73.9242 32.4985C73.9288 32.526 73.9265 32.5031 73.9059 32.4825C73.8852 32.4642 73.8852 32.4733 73.9242 32.4802C74.1281 32.5054 74.3319 32.4504 74.5542 32.3886C74.8428 32.3038 75.1406 32.1824 75.4178 32.0518C75.5255 32.0014 75.6148 31.9464 75.7477 31.951C76.0798 31.951 76.3043 32.2992 76.2104 32.5947C76.0455 33.2934 75.6354 33.9463 75.4361 34.6175C75.4201 34.6862 75.4109 34.7481 75.4109 34.7893C75.4109 34.8306 75.4201 34.8466 75.4201 34.8466C75.4178 34.8535 75.4888 34.9176 75.6171 34.952C75.8622 35.023 76.1783 35.0207 76.4441 34.9909C76.5128 34.9863 76.5815 34.984 76.6502 34.9886C77.5666 35.1054 78.1484 35.9599 78.6661 36.6036L77.9697 37.1534L77.4177 36.4776L78.0957 35.9049L78.1003 35.9095L78.1209 35.9347L78.6432 36.5784L78.531 36.4868C78.6318 36.5441 78.7051 36.654 78.7853 36.7365C80.2491 38.3813 82.1459 39.5633 84.2076 40.3216L83.6211 40.7294V40.7202V40.0994C84.4802 40.4155 85.3759 40.7133 86.2601 40.9676C87.653 41.38 89.048 41.7098 90.4706 42.0076C91.1808 42.1611 91.8932 42.3077 92.6057 42.4543C92.8668 42.5047 92.8164 42.8942 92.5484 42.8804Z" fill="#000072"/>
<path d="M107.147 34.6679C108.298 34.6679 109.232 34.2197 109.232 33.6669C109.232 33.114 108.298 32.6658 107.147 32.6658C105.996 32.6658 105.062 33.114 105.062 33.6669C105.062 34.2197 105.996 34.6679 107.147 34.6679Z" fill="#FF7687"/>
<path d="M84.6217 34.6679C85.773 34.6679 86.7064 34.2197 86.7064 33.6669C86.7064 33.114 85.773 32.6658 84.6217 32.6658C83.4704 32.6658 82.5371 33.114 82.5371 33.6669C82.5371 34.2197 83.4704 34.6679 84.6217 34.6679Z" fill="#FF7687"/>
<path d="M92.7686 32.1114C92.7686 32.1114 93.3161 33.5477 94.5966 33.2156C96.0536 32.8376 95.8795 31.0989 95.8795 31.0989" fill="white"/>
<path d="M99.0432 32.1114C99.0432 32.1114 98.4957 33.5477 97.2151 33.2156C95.7582 32.8376 95.9323 31.0989 95.9323 31.0989" fill="white"/>
<path d="M88.2121 31.4745C89.6215 31.4745 90.7641 29.6468 90.7641 27.3923C90.7641 25.1377 89.6215 23.3101 88.2121 23.3101C86.8027 23.3101 85.6602 25.1377 85.6602 27.3923C85.6602 29.6468 86.8027 31.4745 88.2121 31.4745Z" fill="#000072"/>
<path d="M89.7745 26.5274C89.8503 25.8116 89.5446 25.1924 89.0917 25.1444C88.6387 25.0964 88.2101 25.6379 88.1343 26.3537C88.0585 27.0696 88.3642 27.6888 88.8171 27.7367C89.2701 27.7847 89.6987 27.2433 89.7745 26.5274Z" fill="white"/>
<g opacity="0.35">
<path d="M87.6398 30.4991C87.8809 30.3817 87.9111 29.9471 87.7072 29.5286C87.5033 29.11 87.1426 28.8659 86.9014 28.9834C86.6603 29.1008 86.6301 29.5354 86.834 29.9539C87.0379 30.3725 87.3986 30.6166 87.6398 30.4991Z" fill="white"/>
</g>
<path d="M103.53 31.4745C104.94 31.4745 106.082 29.6468 106.082 27.3923C106.082 25.1377 104.94 23.3101 103.53 23.3101C102.121 23.3101 100.979 25.1377 100.979 27.3923C100.979 29.6468 102.121 31.4745 103.53 31.4745Z" fill="#000072"/>
<path d="M102.922 27.7324C103.375 27.6845 103.68 27.0653 103.605 26.3494C103.529 25.6336 103.1 25.0921 102.647 25.1401C102.194 25.188 101.889 25.8072 101.964 26.5231C102.04 27.2389 102.469 27.7804 102.922 27.7324Z" fill="white"/>
<g opacity="0.35">
<path d="M104.907 29.9626C105.111 29.5441 105.081 29.1095 104.84 28.9921C104.599 28.8746 104.238 29.1187 104.034 29.5373C103.83 29.9559 103.861 30.3904 104.102 30.5078C104.343 30.6253 104.704 30.3812 104.907 29.9626Z" fill="white"/>
</g>
<g opacity="0.3">
<path d="M92.651 61.1541C91.3636 62.1735 88.1794 61.9834 86.0031 59.4177C85.1303 58.3891 84.4202 55.8944 84.0605 54.0297L88.9285 49.6154C89.2148 51.6588 90.2526 53.2371 91.3247 54.5681C93.407 57.1544 95.6131 58.8129 92.651 61.1541Z" fill="#000072"/>
</g>
<g opacity="0.3">
<path d="M97.9133 61.1541C99.2008 62.1735 102.385 61.9834 104.561 59.4177C105.434 58.3891 106.144 55.8944 106.504 54.0297L101.636 49.6154C101.35 51.6588 100.312 53.2371 99.2397 54.5681C97.1574 57.1544 94.9513 58.8129 97.9133 61.1541Z" fill="#000072"/>
</g>
<path d="M92.651 59.3078C91.3636 60.3272 88.1794 60.137 86.0031 57.5714C85.1303 56.5428 84.4202 55.1339 84.0605 53.2669L88.9285 47.7667C89.2148 49.8101 90.2526 51.3885 91.3247 52.7194C93.407 55.3103 95.6131 56.9666 92.651 59.3078Z" fill="#BFBFBF"/>
<path d="M92.6518 59.3077C91.3644 60.3271 88.1802 60.137 86.0039 57.5713C86.3246 55.4798 89.0255 52.9691 91.3254 52.7217C93.4078 55.3103 95.6138 56.9665 92.6518 59.3077Z" fill="white"/>
<g opacity="0.3">
<path d="M92.6519 59.3078C91.3645 60.3272 88.1803 60.137 86.004 57.5713C85.2755 56.7123 84.6616 55.5898 84.2676 54.1558C84.5952 54.8522 84.9846 55.4501 85.4107 55.9517C87.5869 58.5174 90.7712 58.7076 92.0586 57.6882C93.0963 56.8681 93.4995 56.1304 93.4949 55.4088C94.3425 56.6985 94.4639 57.876 92.6519 59.3078Z" fill="#000072"/>
</g>
<path d="M89.2498 47.7232C89.669 49.7941 90.8442 51.5305 92.2256 53.1089C94.0445 55.2026 95.9069 57.1613 93.1579 59.5048C92.3561 60.2355 91.2039 60.4325 90.1615 60.3295C86.6864 59.9996 83.9787 56.6894 83.8458 53.3059C83.8389 53.063 84.178 52.9897 84.2696 53.2142C84.4712 53.7159 84.6338 54.2153 84.8446 54.6941C85.5799 56.5748 86.8765 58.325 88.8146 59.042C89.8981 59.4521 91.2428 59.6262 92.2645 58.9939C92.4386 58.8725 92.6562 58.6824 92.8189 58.5266C93.5382 57.8554 93.8703 57.0857 93.403 56.1671C92.9563 55.2691 92.1981 54.4765 91.5452 53.6838C90.1318 52.0345 88.7527 50.0667 88.6061 47.8102C88.5832 47.4162 89.1605 47.3269 89.2498 47.7232Z" fill="#000072"/>
<path d="M97.9133 59.3078C99.2008 60.3272 102.385 60.1371 104.561 57.5714C105.434 56.5428 106.144 55.134 106.504 53.267L101.636 47.769C101.35 49.8124 100.312 51.3908 99.2397 52.7218C97.1574 55.3104 94.9513 56.9666 97.9133 59.3078Z" fill="#BFBFBF"/>
<path d="M97.9133 59.3077C99.2008 60.3271 102.385 60.137 104.561 57.5713C104.241 55.4798 101.54 52.9691 99.2397 52.7217C97.1574 55.3103 94.9513 56.9665 97.9133 59.3077Z" fill="white"/>
<path d="M101.959 47.8147C101.778 50.6622 99.7137 52.8499 97.9934 54.9185C96.8067 56.4075 96.3967 57.4292 98.0186 58.7808C99.0219 59.6719 100.573 59.4887 101.748 59.0442C103.686 58.3249 104.983 56.577 105.718 54.6963C105.926 54.2198 106.089 53.7227 106.288 53.2256C106.33 53.1088 106.462 53.0492 106.577 53.095C106.666 53.1317 106.717 53.2164 106.714 53.3081C106.671 54.4145 106.359 55.5187 105.814 56.5083C104.737 58.5174 102.733 60.1209 100.399 60.3294C98.6875 60.4852 97.5031 59.9216 96.4975 58.5265C95.446 57.0306 96.2753 55.5622 97.2832 54.3481C98.2957 53.1179 99.4205 51.9473 100.199 50.582C100.719 49.6909 101.097 48.7333 101.313 47.7208C101.402 47.3337 101.982 47.4093 101.959 47.8147Z" fill="#000072"/>
<path d="M98.3006 32.1824C98.3006 32.1824 98.2525 33.2728 97.8562 34.3747C97.7714 34.6106 97.6546 34.8168 97.5148 34.9909C96.7131 35.9851 95.1393 35.9851 94.3375 34.9909C94.1978 34.8168 94.0809 34.6106 93.9962 34.3747C93.6022 33.2728 93.5518 32.1824 93.5518 32.1824H98.3006Z" fill="#000072"/>
<path d="M97.5152 34.9909C96.7134 35.9851 95.1397 35.9851 94.3379 34.9909C95.1374 33.9967 96.7134 33.9967 97.5152 34.9909Z" fill="#F27E80"/>
<path d="M95.925 36.1844C94.8574 36.1844 93.9343 35.5338 93.5746 34.5258C93.1623 33.3735 93.1073 32.2511 93.105 32.2029C93.0935 31.9578 93.2837 31.7494 93.5311 31.7379C93.7762 31.7287 93.9847 31.9166 93.9961 32.164C93.9961 32.1732 94.0488 33.204 94.4153 34.2257C94.6971 35.0115 95.3798 35.2932 95.9273 35.2932C96.4748 35.2932 97.1551 35.0138 97.4392 34.2257C97.8057 33.204 97.8561 32.1732 97.8584 32.164C97.8698 31.9189 98.0783 31.7265 98.3234 31.7379C98.5685 31.7494 98.7587 31.9578 98.7495 32.2029C98.7472 32.2511 98.6922 33.3735 98.2799 34.5258C97.9157 35.5338 96.9925 36.1844 95.925 36.1844Z" fill="#000072"/>
<g opacity="0.25">
<path d="M99.0424 32.7001C99.0424 32.7001 98.4949 34.1364 97.2144 33.8042C95.7574 33.4263 95.9544 32.7253 95.8903 32.7253C95.8261 32.7253 96.0529 33.4263 94.5937 33.8042C93.3131 34.1364 92.7656 32.7001 92.7656 32.7001C92.7656 32.7001 92.7404 29.1425 95.8903 29.1425C99.0401 29.1425 99.0424 32.7001 99.0424 32.7001Z" fill="#6B184E"/>
</g>
<path d="M99.043 32.1114C99.043 32.1114 98.4955 33.5478 97.215 33.2156C95.758 32.8376 95.9321 31.0989 95.9321 31.0989H95.8771C95.8771 31.0989 96.0512 32.8376 94.5943 33.2156C93.3137 33.5478 92.7662 32.1114 92.7662 32.1114C92.7662 32.1114 90.9038 28.5538 95.8909 28.5538C100.878 28.5538 99.043 32.1114 99.043 32.1114Z" fill="white"/>
<g opacity="0.25">
<path d="M99.0223 32.1572C98.917 32.4 98.358 33.511 97.2149 33.2155C95.7556 32.8375 95.932 31.0988 95.932 31.0988H95.8794C95.8794 31.0988 96.0535 32.8375 94.5965 33.2155C93.4534 33.511 92.8944 32.4 92.7891 32.1572C93.1487 32.4 93.6206 32.5397 94.2139 32.3862C96.097 31.8983 95.8702 29.6533 95.8702 29.6533H95.9412C95.9412 29.6533 95.7144 31.8983 97.5975 32.3862C98.1908 32.542 98.6627 32.4023 99.0223 32.1572Z" fill="#000072"/>
</g>
<path d="M92.9698 32.0358C93.3318 32.6428 93.9182 33.1422 94.649 32.849C95.366 32.6245 95.634 31.7907 95.6638 31.1034C95.6707 30.9843 95.7738 30.8927 95.8929 30.8973C96.1518 30.9179 96.1105 31.2455 96.1289 31.4264C96.1334 31.7792 96.0853 32.1251 95.941 32.4573C95.7142 33.0323 95.1369 33.479 94.5161 33.5683C93.7464 33.7287 92.9973 33.2018 92.6949 32.5214C92.6148 32.345 92.4338 32.0152 92.7156 31.9212C92.8186 31.8892 92.9217 31.9419 92.9698 32.0358Z" fill="#000072"/>
<path d="M99.2469 32.1892C98.9583 33.2018 97.9733 33.8913 96.9355 33.4698C95.9596 33.1445 95.5519 32.022 95.7191 31.0782C95.7649 30.8262 96.136 30.8491 96.1498 31.1034C96.1773 31.7906 96.4476 32.6245 97.1646 32.849C97.9045 33.1445 98.4956 32.6291 98.8575 32.0128C98.9858 31.8021 99.3157 31.9533 99.2469 32.1892Z" fill="#000072"/>
<path d="M97.6614 29.9672C97.6614 30.3795 97.1253 30.9637 96.6328 31.2088C96.1174 31.4677 95.5401 31.4677 95.0247 31.2088C94.5321 30.9614 93.9961 30.3772 93.9961 29.9672C93.9961 29.225 97.6614 29.225 97.6614 29.9672Z" fill="#000072"/>
<g opacity="0.5">
<path d="M96.5549 29.9466C96.5549 30.0657 96.3419 30.1688 96.1471 30.2421C95.9433 30.3177 95.7142 30.3177 95.5103 30.2421C95.3156 30.1711 95.1025 30.0657 95.1025 29.9466C95.1025 29.587 96.5549 29.587 96.5549 29.9466Z" fill="white"/>
</g>
<path d="M86.6403 19.4733C87.4398 18.683 88.796 18.5089 89.7238 19.1733C89.8543 19.258 89.9643 19.368 90.0788 19.4711C90.2209 19.6039 90.2277 19.8261 90.0949 19.9682C89.9872 20.085 89.8177 20.1102 89.6825 20.0438C89.6138 20.0094 89.5405 19.9727 89.4741 19.9361C89.2335 19.7986 88.9655 19.7093 88.6929 19.6635C88.1156 19.581 87.5338 19.7918 87.0206 20.0438C86.6655 20.1949 86.3677 19.7391 86.6403 19.4733Z" fill="#000072"/>
<path d="M104.694 20.0183C103.822 19.567 103.008 19.4982 102.152 20.0205C101.971 20.1351 101.725 20.0824 101.629 19.8854C101.476 19.5601 101.842 19.3471 102.06 19.1752C102.456 18.9026 102.944 18.7469 103.428 18.7606C104.074 18.7766 104.678 19.0286 105.143 19.473C105.441 19.7915 105.065 20.2313 104.694 20.0183Z" fill="#000072"/>
<path d="M90.0306 58.6227C90.4338 58.9343 90.9423 59.1702 91.4486 59.2413C91.6181 59.2687 91.7876 59.2642 91.9526 59.2573C92.5825 59.2596 92.5367 60.1851 91.909 60.1255C91.263 60.0499 90.6628 59.7658 90.1657 59.3581C90.0054 59.2252 89.8611 59.0901 89.7167 58.9228C89.6389 58.8312 89.648 58.696 89.7397 58.6159C89.8244 58.5449 89.9504 58.5517 90.0306 58.6227Z" fill="#000072"/>
<path d="M91.298 57.0239C91.9349 57.4706 92.7206 57.8646 93.511 57.8325C94.1363 57.8256 94.1089 58.7465 93.4835 58.7007C92.7435 58.616 92.0929 58.2563 91.5225 57.8073C91.3416 57.663 91.172 57.5164 91.0048 57.3446C90.9201 57.2598 90.9223 57.1224 91.0071 57.0376C91.0873 56.9574 91.2133 56.9551 91.298 57.0239Z" fill="#000072"/>
<path d="M100.942 58.9252C100.376 59.5689 99.609 60.0202 98.7523 60.1256C98.1796 60.1897 98.0605 59.3605 98.6286 59.2619C98.821 59.2528 99.0134 59.2803 99.2104 59.2413C99.7167 59.1726 100.228 58.9344 100.628 58.6228C100.832 58.4418 101.119 58.719 100.942 58.9252Z" fill="#000072"/>
<path d="M99.6566 57.3445C98.9762 58.0157 98.1538 58.5792 97.1779 58.7007C96.6052 58.7511 96.5044 57.9218 97.0749 57.8347C97.478 57.8508 97.8904 57.7798 98.2775 57.6217C98.6578 57.4705 99.0449 57.2575 99.3748 57.0169C99.5879 56.8634 99.8398 57.1567 99.6566 57.3445Z" fill="#000072"/>
<g opacity="0.3">
<path d="M97.9132 59.3078C99.2006 60.3272 102.385 60.137 104.561 57.5713C105.29 56.7123 105.904 55.5898 106.298 54.1558C105.97 54.8522 105.581 55.4501 105.154 55.9517C102.978 58.5174 99.7939 58.7076 98.5065 57.6882C97.4688 56.8681 97.0656 56.1304 97.0702 55.4088C96.2226 56.6985 96.1012 57.876 97.9132 59.3078Z" fill="#000072"/>
</g>
<path d="M79.0712 99.35C77.6879 99.35 76.4045 99.1333 75.2212 98.7C74.0545 98.25 73.0379 97.6167 72.1712 96.8C71.3212 95.9833 70.6545 95.025 70.1712 93.925C69.6879 92.8083 69.4462 91.5833 69.4462 90.25C69.4462 88.9167 69.6879 87.7 70.1712 86.6C70.6545 85.4833 71.3212 84.5167 72.1712 83.7C73.0379 82.8833 74.0545 82.2583 75.2212 81.825C76.4045 81.375 77.6879 81.15 79.0712 81.15C80.6879 81.15 82.1295 81.4333 83.3962 82C84.6795 82.5667 85.7462 83.3833 86.5962 84.45L83.4462 87.3C82.8795 86.6333 82.2545 86.125 81.5712 85.775C80.9045 85.425 80.1545 85.25 79.3212 85.25C78.6045 85.25 77.9462 85.3667 77.3462 85.6C76.7462 85.8333 76.2295 86.175 75.7962 86.625C75.3795 87.0583 75.0462 87.5833 74.7962 88.2C74.5629 88.8167 74.4462 89.5 74.4462 90.25C74.4462 91 74.5629 91.6833 74.7962 92.3C75.0462 92.9167 75.3795 93.45 75.7962 93.9C76.2295 94.3333 76.7462 94.6667 77.3462 94.9C77.9462 95.1333 78.6045 95.25 79.3212 95.25C80.1545 95.25 80.9045 95.075 81.5712 94.725C82.2545 94.375 82.8795 93.8667 83.4462 93.2L86.5962 96.05C85.7462 97.1 84.6795 97.9167 83.3962 98.5C82.1295 99.0667 80.6879 99.35 79.0712 99.35ZM86.4103 99L94.1353 81.5H99.0103L106.76 99H101.61L95.5603 83.925H97.5103L91.4603 99H86.4103ZM90.6353 95.6L91.9103 91.95H100.46L101.735 95.6H90.6353ZM111.01 99V85.425H105.635V81.5H121.31V85.425H115.96V99H111.01ZM64.9483 120.35C63.515 120.35 62.1317 120.175 60.7983 119.825C59.4817 119.458 58.4067 118.992 57.5733 118.425L59.1983 114.775C59.9817 115.275 60.8817 115.692 61.8983 116.025C62.9317 116.342 63.9567 116.5 64.9733 116.5C65.6567 116.5 66.2067 116.442 66.6233 116.325C67.04 116.192 67.34 116.025 67.5233 115.825C67.7233 115.608 67.8233 115.358 67.8233 115.075C67.8233 114.675 67.64 114.358 67.2733 114.125C66.9067 113.892 66.4317 113.7 65.8483 113.55C65.265 113.4 64.615 113.25 63.8983 113.1C63.1983 112.95 62.49 112.758 61.7733 112.525C61.0733 112.292 60.4317 111.992 59.8483 111.625C59.265 111.242 58.79 110.75 58.4233 110.15C58.0567 109.533 57.8733 108.758 57.8733 107.825C57.8733 106.775 58.1567 105.825 58.7233 104.975C59.3067 104.125 60.1733 103.442 61.3233 102.925C62.4733 102.408 63.9067 102.15 65.6233 102.15C66.7733 102.15 67.8983 102.283 68.9983 102.55C70.115 102.8 71.1067 103.175 71.9733 103.675L70.4483 107.35C69.615 106.9 68.79 106.567 67.9733 106.35C67.1567 106.117 66.365 106 65.5983 106C64.915 106 64.365 106.075 63.9483 106.225C63.5317 106.358 63.2317 106.542 63.0483 106.775C62.865 107.008 62.7733 107.275 62.7733 107.575C62.7733 107.958 62.9483 108.267 63.2983 108.5C63.665 108.717 64.14 108.9 64.7233 109.05C65.3233 109.183 65.9733 109.325 66.6733 109.475C67.39 109.625 68.0983 109.817 68.7983 110.05C69.515 110.267 70.165 110.567 70.7483 110.95C71.3317 111.317 71.7983 111.808 72.1483 112.425C72.515 113.025 72.6983 113.783 72.6983 114.7C72.6983 115.717 72.4067 116.658 71.8233 117.525C71.2567 118.375 70.3983 119.058 69.2483 119.575C68.115 120.092 66.6817 120.35 64.9483 120.35ZM86.6849 102.5H91.6349V120H86.6849V102.5ZM79.9349 120H74.9849V102.5H79.9349V120ZM87.0349 113.175H79.5849V109.075H87.0349V113.175ZM103.951 120.35C102.551 120.35 101.26 120.125 100.076 119.675C98.8931 119.225 97.8598 118.592 96.9765 117.775C96.1098 116.942 95.4348 115.975 94.9515 114.875C94.4681 113.775 94.2265 112.567 94.2265 111.25C94.2265 109.933 94.4681 108.725 94.9515 107.625C95.4348 106.525 96.1098 105.567 96.9765 104.75C97.8598 103.917 98.8931 103.275 100.076 102.825C101.26 102.375 102.551 102.15 103.951 102.15C105.368 102.15 106.66 102.375 107.826 102.825C109.01 103.275 110.035 103.917 110.901 104.75C111.768 105.567 112.443 106.525 112.926 107.625C113.426 108.725 113.676 109.933 113.676 111.25C113.676 112.567 113.426 113.783 112.926 114.9C112.443 116 111.768 116.958 110.901 117.775C110.035 118.592 109.01 119.225 107.826 119.675C106.66 120.125 105.368 120.35 103.951 120.35ZM103.951 116.25C104.618 116.25 105.235 116.133 105.801 115.9C106.385 115.667 106.885 115.333 107.301 114.9C107.735 114.45 108.068 113.917 108.301 113.3C108.551 112.683 108.676 112 108.676 111.25C108.676 110.483 108.551 109.8 108.301 109.2C108.068 108.583 107.735 108.058 107.301 107.625C106.885 107.175 106.385 106.833 105.801 106.6C105.235 106.367 104.618 106.25 103.951 106.25C103.285 106.25 102.66 106.367 102.076 106.6C101.51 106.833 101.01 107.175 100.576 107.625C100.16 108.058 99.8265 108.583 99.5765 109.2C99.3431 109.8 99.2265 110.483 99.2265 111.25C99.2265 112 99.3431 112.683 99.5765 113.3C99.8265 113.917 100.16 114.45 100.576 114.9C101.01 115.333 101.51 115.667 102.076 115.9C102.66 116.133 103.285 116.25 103.951 116.25ZM116.269 120V102.5H124.269C125.869 102.5 127.244 102.758 128.394 103.275C129.561 103.792 130.461 104.542 131.094 105.525C131.727 106.492 132.044 107.642 132.044 108.975C132.044 110.292 131.727 111.433 131.094 112.4C130.461 113.367 129.561 114.117 128.394 114.65C127.244 115.167 125.869 115.425 124.269 115.425H119.019L121.219 113.275V120H116.269ZM121.219 113.8L119.019 111.525H123.969C125.002 111.525 125.769 111.3 126.269 110.85C126.786 110.4 127.044 109.775 127.044 108.975C127.044 108.158 126.786 107.525 126.269 107.075C125.769 106.625 125.002 106.4 123.969 106.4H119.019L121.219 104.125V113.8Z" fill="#FF708F"/>
<defs>
<filter id="filter0_d_103_1999" x="0" y="-36" width="194.4" height="194.4" filterUnits="userSpaceOnUse" color-interpolation-filters="sRGB">
<feFlood flood-opacity="0" result="BackgroundImageFix"/>
<feColorMatrix in="SourceAlpha" type="matrix" values="0 0 0 0 0 0 0 0 0 0 0 0 0 0 0 0 0 0 127 0" result="hardAlpha"/>
<feOffset dx="1" dy="-1"/>
<feGaussianBlur stdDeviation="8"/>
<feColorMatrix type="matrix" values="0 0 0 0 0 0 0 0 0 0 0 0 0 0 0 0 0 0 0.06 0"/>
<feBlend mode="normal" in2="BackgroundImageFix" result="effect1_dropShadow_103_1999"/>
<feBlend mode="normal" in="SourceGraphic" in2="effect1_dropShadow_103_1999" result="shape"/>
</filter>
</defs>
</svg>
