<svg width="25" height="15" viewBox="0 0 25 15" fill="none" xmlns="http://www.w3.org/2000/svg">
<path d="M11.5245 0.555247L0.399387 11.6806C0.141869 11.9379 0 12.2814 0 12.6476C0 13.0139 0.141869 13.3574 0.399387 13.6147L1.21849 14.434C1.75222 14.9671 2.61969 14.9671 3.15262 14.434L12.4948 5.0918L21.8474 14.4444C22.1049 14.7017 22.4482 14.8438 22.8142 14.8438C23.1807 14.8438 23.524 14.7017 23.7817 14.4444L24.6006 13.6251C24.8581 13.3675 25 13.0243 25 12.658C25 12.2917 24.8581 11.9482 24.6006 11.6909L13.4653 0.555247C13.207 0.297323 12.8621 0.155658 12.4954 0.156471C12.1273 0.155658 11.7826 0.297323 11.5245 0.555247Z" fill="white"/>
</svg>
