<svg width="18" height="18" viewBox="0 0 18 18" fill="none" xmlns="http://www.w3.org/2000/svg">
<path d="M15.984 12.5283C14.8172 11.5982 13.6332 11.0349 12.4808 11.9635L11.7927 12.5248C11.2892 12.9322 10.3531 14.8358 6.73382 10.9555C3.11531 7.08008 5.26863 6.47668 5.77286 6.07277L6.46475 5.51081C7.61113 4.58006 7.17851 3.40838 6.3517 2.20228L5.85275 1.47173C5.02217 0.268437 4.11773 -0.521817 2.96834 0.407522L2.3473 0.913285C1.8393 1.25819 0.419334 2.37929 0.0748931 4.50912C-0.339641 7.06462 0.968026 9.99102 3.96398 13.2019C6.95617 16.4142 9.88579 18.0277 12.6609 17.9996C14.9672 17.9765 16.3601 16.823 16.7957 16.4037L17.419 15.8972C18.5654 14.9686 17.8531 14.0231 16.6857 13.0909L15.984 12.5283Z" fill="white"/>
</svg>
